<?xml version="1.0" encoding="utf-8"?>
<svg width="231.29999px" height="178.00009px" viewBox="0 0 231.29999 178.00009" version="1.1" xmlns:xlink="http://www.w3.org/1999/xlink" xmlns="http://www.w3.org/2000/svg">
  <g id="Group" transform="translate(0.5 0.5)">
    <path d="M18.4995 0C18.4993 0.000417069 17.4995 156 17.4995 156" id="vertical" fill="none" fill-rule="evenodd" stroke="#ABABAB" stroke-width="1" />
    <path d="M18 156L229.5 156" id="horizontal" fill="none" fill-rule="evenodd" stroke="#ABABAB" stroke-width="1" />
    <path d="M34.8 127L230.3 127" id="New-shape-3" fill="none" fill-rule="evenodd" stroke="#EEEEEE" stroke-width="1" />
    <path d="M34 98.0001L229.5 98.0001" id="New-shape-11" fill="none" fill-rule="evenodd" stroke="#EEEEEE" stroke-width="1" />
    <path d="M34 69.0001L229.5 69.0001" id="New-shape-12" fill="none" fill-rule="evenodd" stroke="#EEEEEE" stroke-width="1" />
    <path d="M34 40.0001L229.5 40.0001" id="New-shape-13" fill="none" fill-rule="evenodd" stroke="#EEEEEE" stroke-width="1" />
    <path d="M34.6 11.0001L230.1 11.0001" id="New-shape-14" fill="none" fill-rule="evenodd" stroke="#EEEEEE" stroke-width="1" />
    <path d="M53.499 60.0001L53.501 60.0001Q53.7465 60.0001 53.9916 60.0121Q54.2368 60.0242 54.4811 60.0482Q54.7254 60.0723 54.9682 60.1083Q55.211 60.1443 55.4517 60.1922Q55.6924 60.2401 55.9305 60.2998Q56.1687 60.3594 56.4036 60.4306Q56.6384 60.5019 56.8696 60.5846Q57.1007 60.6673 57.3274 60.7612Q57.5542 60.8551 57.7761 60.9601Q57.998 61.065 58.2145 61.1808Q58.431 61.2965 58.6415 61.4227Q58.852 61.5488 59.0561 61.6852Q59.2602 61.8216 59.4574 61.9678Q59.6545 62.114 59.8443 62.2698Q60.034 62.4255 60.2159 62.5903Q60.3978 62.7552 60.5714 62.9287Q60.7449 63.1023 60.9098 63.2842Q61.0746 63.466 61.2303 63.6558Q61.386 63.8455 61.5323 64.0427Q61.6785 64.2398 61.8149 64.4439Q61.9512 64.648 62.0774 64.8586Q62.2036 65.0691 62.3193 65.2856Q62.435 65.5021 62.54 65.724Q62.6449 65.9459 62.7389 66.1726Q62.8328 66.3994 62.9155 66.6305Q62.9982 66.8616 63.0694 67.0965Q63.1407 67.3314 63.2003 67.5695Q63.26 67.8076 63.3079 68.0484Q63.3558 68.2891 63.3918 68.5319Q63.4278 68.7747 63.4519 69.019Q63.4759 69.2633 63.488 69.5085Q63.5 69.7536 63.5 69.9991L63.5 140.001Q63.5 140.247 63.488 140.492Q63.4759 140.737 63.4519 140.981Q63.4278 141.225 63.3918 141.468Q63.3558 141.711 63.3079 141.952Q63.26 142.193 63.2003 142.431Q63.1407 142.669 63.0694 142.904Q62.9982 143.139 62.9155 143.37Q62.8328 143.601 62.7389 143.828Q62.6449 144.054 62.54 144.276Q62.435 144.498 62.3193 144.715Q62.2036 144.931 62.0774 145.142Q61.9512 145.352 61.8149 145.556Q61.6785 145.76 61.5323 145.957Q61.386 146.155 61.2303 146.344Q61.0746 146.534 60.9098 146.716Q60.7449 146.898 60.5714 147.071Q60.3978 147.245 60.2159 147.41Q60.034 147.575 59.8443 147.73Q59.6545 147.886 59.4574 148.032Q59.2602 148.179 59.0561 148.315Q58.852 148.451 58.6415 148.577Q58.431 148.704 58.2145 148.819Q57.998 148.935 57.7761 149.04Q57.5542 149.145 57.3274 149.239Q57.1007 149.333 56.8696 149.416Q56.6384 149.498 56.4036 149.57Q56.1687 149.641 55.9306 149.7Q55.6924 149.76 55.4517 149.808Q55.211 149.856 54.9682 149.892Q54.7254 149.928 54.4811 149.952Q54.2368 149.976 53.9916 149.988Q53.7465 150 53.501 150L53.499 150Q53.2535 150 53.0084 149.988Q52.7632 149.976 52.5189 149.952Q52.2746 149.928 52.0318 149.892Q51.789 149.856 51.5483 149.808Q51.3075 149.76 51.0694 149.7Q50.8313 149.641 50.5964 149.57Q50.3615 149.498 50.1304 149.416Q49.8993 149.333 49.6725 149.239Q49.4458 149.145 49.2239 149.04Q49.002 148.935 48.7855 148.819Q48.569 148.704 48.3585 148.577Q48.1479 148.451 47.9438 148.315Q47.7397 148.179 47.5426 148.032Q47.3454 147.886 47.1557 147.73Q46.966 147.575 46.7841 147.41Q46.6022 147.245 46.4286 147.071Q46.2551 146.898 46.0902 146.716Q45.9254 146.534 45.7697 146.344Q45.6139 146.155 45.4677 145.957Q45.3215 145.76 45.1851 145.556Q45.0488 145.352 44.9226 145.142Q44.7964 144.931 44.6807 144.715Q44.565 144.498 44.46 144.276Q44.3551 144.054 44.2611 143.828Q44.1672 143.601 44.0845 143.37Q44.0018 143.139 43.9305 142.904Q43.8593 142.669 43.7997 142.431Q43.74 142.193 43.6921 141.952Q43.6442 141.711 43.6082 141.468Q43.5722 141.225 43.5481 140.981Q43.5241 140.737 43.512 140.492Q43.5 140.247 43.5 140.001L43.5 69.9991Q43.5 69.7536 43.512 69.5085Q43.5241 69.2633 43.5481 69.019Q43.5722 68.7747 43.6082 68.5319Q43.6442 68.2891 43.6921 68.0484Q43.74 67.8076 43.7996 67.5695Q43.8593 67.3314 43.9305 67.0965Q44.0018 66.8616 44.0845 66.6305Q44.1672 66.3994 44.2611 66.1726Q44.3551 65.9459 44.46 65.724Q44.565 65.5021 44.6807 65.2856Q44.7964 65.0691 44.9226 64.8586Q45.0488 64.648 45.1851 64.4439Q45.3215 64.2398 45.4677 64.0427Q45.6139 63.8455 45.7697 63.6558Q45.9254 63.466 46.0902 63.2842Q46.2551 63.1023 46.4286 62.9287Q46.6022 62.7552 46.7841 62.5903Q46.966 62.4255 47.1557 62.2698Q47.3454 62.114 47.5426 61.9678Q47.7397 61.8216 47.9438 61.6852Q48.1479 61.5489 48.3585 61.4227Q48.569 61.2965 48.7855 61.1808Q49.002 61.065 49.2239 60.9601Q49.4458 60.8551 49.6725 60.7612Q49.8993 60.6673 50.1304 60.5846Q50.3615 60.5019 50.5964 60.4306Q50.8313 60.3594 51.0694 60.2997Q51.3075 60.2401 51.5483 60.1922Q51.789 60.1443 52.0318 60.1083Q52.2746 60.0723 52.5189 60.0482Q52.7632 60.0242 53.0084 60.0121Q53.2535 60.0001 53.499 60.0001Z" id="Rectangle" fill="#1E90FF" fill-rule="evenodd" stroke="none" />
    <g id="Mon" fill="#ABABAB" transform="translate(43 164.00009)">
      <path d="M0.96875 2.5L2.125 2.5L4.84375 9.14063L4.9375 9.14063L7.65625 2.5L8.8125 2.5L8.8125 10.5L7.90625 10.5L7.90625 4.42188L7.82813 4.42188L5.32813 10.5L4.45313 10.5L1.95313 4.42188L1.875 4.42188L1.875 10.5L0.96875 10.5L0.96875 2.5ZM13.0625 10.625Q12.25 10.625 11.6387 10.2383Q11.0273 9.85156 10.6855 9.15625Q10.3438 8.46094 10.3438 7.53125Q10.3438 6.59375 10.6855 5.89453Q11.0273 5.19531 11.6387 4.80859Q12.25 4.42188 13.0625 4.42188Q13.875 4.42188 14.4863 4.80859Q15.0977 5.19531 15.4395 5.89453Q15.7813 6.59375 15.7813 7.53125Q15.7813 8.46094 15.4395 9.15625Q15.0977 9.85156 14.4863 10.2383Q13.875 10.625 13.0625 10.625ZM18.1094 10.5L18.1094 6.89063Q18.1094 6.10547 18.5449 5.67773Q18.9805 5.25 19.6406 5.25Q20.2813 5.25 20.6484 5.64648Q21.0156 6.04297 21.0156 6.75L21.0156 10.5L21.9375 10.5L21.9375 6.6875Q21.9375 5.53906 21.377 4.98047Q20.8164 4.42188 19.9063 4.42188Q19.2266 4.42188 18.7969 4.70117Q18.3672 4.98047 18.1563 5.4375L18.0781 5.4375L18.0781 4.5L17.1875 4.5L17.1875 10.5L18.1094 10.5ZM13.0625 9.79688Q13.6797 9.79688 14.0781 9.48047Q14.4766 9.16406 14.668 8.64844Q14.8594 8.13281 14.8594 7.53125Q14.8594 6.92969 14.668 6.41016Q14.4766 5.89063 14.0781 5.57031Q13.6797 5.25 13.0625 5.25Q12.4453 5.25 12.0469 5.57031Q11.6484 5.89063 11.457 6.41016Q11.2656 6.92969 11.2656 7.53125Q11.2656 8.13281 11.457 8.64844Q11.6484 9.16406 12.0469 9.48047Q12.4453 9.79688 13.0625 9.79688Z" />
    </g>
    <path d="M97.999 9.15527e-05L98.001 9.15527e-05Q98.2465 9.15527e-05 98.4916 0.0121358Q98.7368 0.02418 98.9811 0.0482395Q99.2253 0.0722989 99.4681 0.108316Q99.711 0.144332 99.9517 0.19222Q100.192 0.240107 100.431 0.299749Q100.669 0.359391 100.904 0.430645Q101.138 0.501899 101.37 0.584592Q101.601 0.667286 101.827 0.76122Q102.054 0.855154 102.276 0.960102Q102.498 1.06505 102.714 1.18076Q102.931 1.29647 103.142 1.42266Q103.352 1.54886 103.556 1.68523Q103.76 1.8216 103.957 1.96782Q104.155 2.11404 104.344 2.26976Q104.534 2.42548 104.716 2.59032Q104.898 2.75516 105.071 2.92873Q105.245 3.1023 105.41 3.28417Q105.575 3.46605 105.73 3.65579Q105.886 3.84554 106.032 4.04269Q106.178 4.23985 106.315 4.44394Q106.451 4.64804 106.577 4.85858Q106.704 5.06912 106.819 5.2856Q106.935 5.50207 107.04 5.72397Q107.145 5.94586 107.239 6.17264Q107.333 6.39942 107.415 6.63053Q107.498 6.86164 107.569 7.09653Q107.641 7.33143 107.7 7.56953Q107.76 7.80764 107.808 8.04838Q107.856 8.28913 107.892 8.53193Q107.928 8.77474 107.952 9.01902Q107.976 9.2633 107.988 9.50846Q108 9.75363 108 9.99909L108 140.001Q108 140.247 107.988 140.492Q107.976 140.737 107.952 140.981Q107.928 141.225 107.892 141.468Q107.856 141.711 107.808 141.952Q107.76 142.193 107.7 142.431Q107.641 142.669 107.569 142.904Q107.498 143.139 107.415 143.37Q107.333 143.601 107.239 143.828Q107.145 144.054 107.04 144.276Q106.935 144.498 106.819 144.715Q106.704 144.931 106.577 145.142Q106.451 145.352 106.315 145.556Q106.178 145.76 106.032 145.957Q105.886 146.155 105.73 146.344Q105.575 146.534 105.41 146.716Q105.245 146.898 105.071 147.071Q104.898 147.245 104.716 147.41Q104.534 147.575 104.344 147.73Q104.155 147.886 103.957 148.032Q103.76 148.179 103.556 148.315Q103.352 148.451 103.142 148.577Q102.931 148.704 102.714 148.819Q102.498 148.935 102.276 149.04Q102.054 149.145 101.827 149.239Q101.601 149.333 101.37 149.416Q101.138 149.498 100.904 149.57Q100.669 149.641 100.431 149.7Q100.192 149.76 99.9517 149.808Q99.711 149.856 99.4682 149.892Q99.2254 149.928 98.9811 149.952Q98.7368 149.976 98.4916 149.988Q98.2465 150 98.001 150L97.999 150Q97.7535 150 97.5084 149.988Q97.2632 149.976 97.0189 149.952Q96.7747 149.928 96.5318 149.892Q96.289 149.856 96.0483 149.808Q95.8075 149.76 95.5694 149.7Q95.3313 149.641 95.0964 149.57Q94.8615 149.498 94.6304 149.416Q94.3993 149.333 94.1725 149.239Q93.9458 149.145 93.7239 149.04Q93.502 148.935 93.2855 148.819Q93.069 148.704 92.8585 148.577Q92.6479 148.451 92.4438 148.315Q92.2398 148.179 92.0426 148.032Q91.8454 147.886 91.6557 147.73Q91.466 147.575 91.2841 147.41Q91.1022 147.245 90.9286 147.071Q90.7551 146.898 90.5902 146.716Q90.4254 146.534 90.2697 146.344Q90.1139 146.155 89.9677 145.957Q89.8215 145.76 89.6851 145.556Q89.5488 145.352 89.4226 145.142Q89.2964 144.931 89.1807 144.715Q89.065 144.498 88.96 144.276Q88.8551 144.054 88.7611 143.828Q88.6672 143.601 88.5845 143.37Q88.5018 143.139 88.4305 142.904Q88.3593 142.669 88.2997 142.431Q88.24 142.193 88.1921 141.952Q88.1442 141.711 88.1082 141.468Q88.0722 141.225 88.0481 140.981Q88.0241 140.737 88.012 140.492Q88 140.247 88 140.001L88 9.99909Q88 9.75363 88.012 9.50846Q88.0241 9.2633 88.0481 9.01902Q88.0722 8.77474 88.1082 8.53193Q88.1442 8.28913 88.1921 8.04838Q88.24 7.80764 88.2997 7.56953Q88.3593 7.33143 88.4305 7.09653Q88.5018 6.86164 88.5845 6.63053Q88.6672 6.39942 88.7611 6.17264Q88.8551 5.94586 88.96 5.72397Q89.065 5.50207 89.1807 5.2856Q89.2964 5.06912 89.4226 4.85858Q89.5488 4.64804 89.6851 4.44394Q89.8215 4.23985 89.9677 4.04269Q90.1139 3.84554 90.2697 3.65579Q90.4254 3.46605 90.5902 3.28417Q90.7551 3.1023 90.9286 2.92873Q91.1022 2.75516 91.2841 2.59032Q91.466 2.42548 91.6557 2.26976Q91.8454 2.11404 92.0426 1.96782Q92.2398 1.8216 92.4438 1.68523Q92.6479 1.54886 92.8585 1.42266Q93.069 1.29647 93.2855 1.18076Q93.502 1.06505 93.7239 0.960102Q93.9458 0.855154 94.1725 0.76122Q94.3993 0.667286 94.6304 0.584592Q94.8615 0.501899 95.0964 0.430645Q95.3313 0.359391 95.5694 0.299749Q95.8075 0.240107 96.0483 0.19222Q96.289 0.144332 96.5318 0.108316Q96.7746 0.0722989 97.0189 0.0482395Q97.2632 0.02418 97.5084 0.0121358Q97.7535 9.15527e-05 97.999 9.15527e-05Z" id="Rectangle-2" fill="#1E90FF" fill-rule="evenodd" stroke="none" />
    <path d="M187.999 34.0001L188.001 34.0001Q188.246 34.0001 188.492 34.0121Q188.737 34.0242 188.981 34.0482Q189.225 34.0723 189.468 34.1083Q189.711 34.1443 189.952 34.1922Q190.192 34.2401 190.431 34.2997Q190.669 34.3594 190.904 34.4306Q191.138 34.5019 191.37 34.5846Q191.601 34.6673 191.827 34.7612Q192.054 34.8552 192.276 34.9601Q192.498 35.065 192.714 35.1808Q192.931 35.2965 193.141 35.4227Q193.352 35.5489 193.556 35.6852Q193.76 35.8216 193.957 35.9678Q194.155 36.114 194.344 36.2698Q194.534 36.4255 194.716 36.5903Q194.898 36.7552 195.071 36.9287Q195.245 37.1023 195.41 37.2842Q195.575 37.466 195.73 37.6558Q195.886 37.8455 196.032 38.0427Q196.178 38.2398 196.315 38.4439Q196.451 38.648 196.577 38.8586Q196.704 39.0691 196.819 39.2856Q196.935 39.5021 197.04 39.724Q197.145 39.9459 197.239 40.1726Q197.333 40.3994 197.415 40.6305Q197.498 40.8616 197.569 41.0965Q197.641 41.3314 197.7 41.5695Q197.76 41.8076 197.808 42.0484Q197.856 42.2891 197.892 42.5319Q197.928 42.7747 197.952 43.019Q197.976 43.2633 197.988 43.5085Q198 43.7536 198 43.9991L198 140.001Q198 140.247 197.988 140.492Q197.976 140.737 197.952 140.981Q197.928 141.225 197.892 141.468Q197.856 141.711 197.808 141.952Q197.76 142.193 197.7 142.431Q197.641 142.669 197.569 142.904Q197.498 143.139 197.415 143.37Q197.333 143.601 197.239 143.828Q197.145 144.054 197.04 144.276Q196.935 144.498 196.819 144.715Q196.704 144.931 196.577 145.142Q196.451 145.352 196.315 145.556Q196.178 145.76 196.032 145.957Q195.886 146.155 195.73 146.344Q195.575 146.534 195.41 146.716Q195.245 146.898 195.071 147.071Q194.898 147.245 194.716 147.41Q194.534 147.575 194.344 147.73Q194.155 147.886 193.957 148.032Q193.76 148.179 193.556 148.315Q193.352 148.451 193.141 148.577Q192.931 148.704 192.715 148.819Q192.498 148.935 192.276 149.04Q192.054 149.145 191.827 149.239Q191.601 149.333 191.37 149.416Q191.138 149.498 190.904 149.57Q190.669 149.641 190.431 149.7Q190.192 149.76 189.952 149.808Q189.711 149.856 189.468 149.892Q189.225 149.928 188.981 149.952Q188.737 149.976 188.492 149.988Q188.246 150 188.001 150L187.999 150Q187.754 150 187.508 149.988Q187.263 149.976 187.019 149.952Q186.775 149.928 186.532 149.892Q186.289 149.856 186.048 149.808Q185.808 149.76 185.569 149.7Q185.331 149.641 185.096 149.57Q184.862 149.498 184.63 149.416Q184.399 149.333 184.173 149.239Q183.946 149.145 183.724 149.04Q183.502 148.935 183.285 148.819Q183.069 148.704 182.858 148.577Q182.648 148.451 182.444 148.315Q182.24 148.179 182.043 148.032Q181.845 147.886 181.656 147.73Q181.466 147.575 181.284 147.41Q181.102 147.245 180.929 147.071Q180.755 146.898 180.59 146.716Q180.425 146.534 180.27 146.344Q180.114 146.155 179.968 145.957Q179.821 145.76 179.685 145.556Q179.549 145.352 179.423 145.142Q179.296 144.931 179.181 144.715Q179.065 144.498 178.96 144.276Q178.855 144.054 178.761 143.828Q178.667 143.601 178.584 143.37Q178.502 143.139 178.431 142.904Q178.359 142.669 178.3 142.431Q178.24 142.193 178.192 141.952Q178.144 141.711 178.108 141.468Q178.072 141.225 178.048 140.981Q178.024 140.737 178.012 140.492Q178 140.247 178 140.001L178 43.9991Q178 43.7536 178.012 43.5085Q178.024 43.2633 178.048 43.019Q178.072 42.7747 178.108 42.5319Q178.144 42.2891 178.192 42.0484Q178.24 41.8076 178.3 41.5695Q178.359 41.3314 178.431 41.0965Q178.502 40.8616 178.584 40.6305Q178.667 40.3994 178.761 40.1726Q178.855 39.9459 178.96 39.724Q179.065 39.5021 179.181 39.2856Q179.296 39.0691 179.423 38.8586Q179.549 38.648 179.685 38.4439Q179.821 38.2398 179.968 38.0427Q180.114 37.8455 180.27 37.6558Q180.425 37.466 180.59 37.2842Q180.755 37.1023 180.929 36.9287Q181.102 36.7552 181.284 36.5903Q181.466 36.4255 181.656 36.2698Q181.845 36.114 182.043 35.9678Q182.24 35.8216 182.444 35.6852Q182.648 35.5489 182.858 35.4227Q183.069 35.2965 183.285 35.1808Q183.502 35.065 183.724 34.9601Q183.946 34.8552 184.173 34.7612Q184.399 34.6673 184.63 34.5846Q184.862 34.5019 185.096 34.4306Q185.331 34.3594 185.569 34.2997Q185.808 34.2401 186.048 34.1922Q186.289 34.1443 186.532 34.1083Q186.775 34.0723 187.019 34.0482Q187.263 34.0242 187.508 34.0121Q187.754 34.0001 187.999 34.0001Z" id="Rectangle-4" fill="#1E90FF" fill-rule="evenodd" stroke="none" />
    <g id="Tue" fill="#ABABAB" transform="translate(91 164.00009)">
      <path d="M0.53125 3.35938L0.53125 2.5L6.53125 2.5L6.53125 3.35938L4.01563 3.35938L4.01563 10.5L3.04688 10.5L3.04688 3.35938L0.53125 3.35938ZM15.3184 10.2402Q15.9453 10.625 16.8125 10.625Q17.7266 10.625 18.3594 10.207Q18.9922 9.78906 19.2031 9.10938L18.3125 8.85938Q18.1367 9.32813 17.7461 9.5625Q17.3555 9.79688 16.8125 9.79688Q16 9.79688 15.4863 9.28516Q14.9727 8.77344 14.9414 7.8125L19.2969 7.8125L19.2969 7.42188Q19.2969 6.58203 19.0742 6.00781Q18.8516 5.43359 18.4766 5.08398Q18.1016 4.73438 17.6445 4.57812Q17.1875 4.42188 16.7188 4.42188Q15.9063 4.42188 15.2988 4.81836Q14.6914 5.21484 14.3535 5.91992Q14.0156 6.625 14.0156 7.54688Q14.0156 8.46875 14.3535 9.16211Q14.6914 9.85547 15.3184 10.2402ZM11.6875 8.04688L11.6875 4.5L12.6094 4.5L12.6094 10.5L11.6875 10.5L11.6875 9.48438L11.625 9.48438Q11.4141 9.94141 10.9688 10.2598Q10.5234 10.5781 9.84375 10.5781Q9 10.5781 8.45313 10.0195Q7.90625 9.46094 7.90625 8.3125L7.90625 4.5L8.82813 4.5L8.82813 8.25Q8.82813 8.90625 9.19727 9.29688Q9.56641 9.6875 10.1406 9.6875Q10.4844 9.6875 10.8418 9.51172Q11.1992 9.33594 11.4434 8.97266Q11.6875 8.60938 11.6875 8.04688ZM18.3594 7.01563L14.9414 7.01563Q14.9727 6.55078 15.1953 6.14648Q15.418 5.74219 15.8047 5.49609Q16.1914 5.25 16.7188 5.25Q17.4688 5.25 17.9141 5.75195Q18.3594 6.25391 18.3594 7.01563Z" />
    </g>
    <g id="1" fill="#ABABAB" transform="translate(2 121.00009)">
      <path d="M3.64063 2.5L3.64063 10.5L2.67188 10.5L2.67188 3.51563L2.625 3.51563L0.671875 4.8125L0.671875 3.82812L2.67188 2.5L3.64063 2.5Z" />
    </g>
    <g id="2" fill="#ABABAB" transform="translate(0 92.00009)">
      <path d="M0.828125 10.5L0.828125 9.79688L3.46875 6.90625Q3.93359 6.39844 4.23438 6.02148Q4.53516 5.64453 4.68164 5.31055Q4.82813 4.97656 4.82813 4.60938Q4.82813 3.97656 4.38867 3.60547Q3.94922 3.23438 3.29688 3.23438Q2.60156 3.23438 2.19141 3.65039Q1.78125 4.06641 1.78125 4.75L0.859375 4.75Q0.859375 4.04688 1.18359 3.51563Q1.50781 2.98437 2.06836 2.6875Q2.62891 2.39063 3.32813 2.39063Q4.03125 2.39063 4.57422 2.6875Q5.11719 2.98438 5.42578 3.48828Q5.73438 3.99219 5.73438 4.60938Q5.73437 5.05078 5.57617 5.4707Q5.41797 5.89063 5.0293 6.4043Q4.64062 6.91797 3.95313 7.65625L2.15625 9.57813L2.15625 9.64063L5.875 9.64063L5.875 10.5L0.828125 10.5Z" />
    </g>
    <path d="M144.999 75.0001L145.001 75.0001Q145.246 75.0001 145.492 75.0121Q145.737 75.0242 145.981 75.0482Q146.225 75.0723 146.468 75.1083Q146.711 75.1443 146.952 75.1922Q147.192 75.2401 147.431 75.2997Q147.669 75.3594 147.904 75.4306Q148.138 75.5019 148.37 75.5846Q148.601 75.6673 148.827 75.7612Q149.054 75.8551 149.276 75.9601Q149.498 76.065 149.715 76.1808Q149.931 76.2965 150.142 76.4227Q150.352 76.5489 150.556 76.6852Q150.76 76.8216 150.957 76.9678Q151.155 77.114 151.344 77.2698Q151.534 77.4255 151.716 77.5903Q151.898 77.7552 152.071 77.9287Q152.245 78.1023 152.41 78.2842Q152.575 78.466 152.73 78.6558Q152.886 78.8455 153.032 79.0427Q153.178 79.2398 153.315 79.4439Q153.451 79.648 153.577 79.8586Q153.704 80.0691 153.819 80.2856Q153.935 80.5021 154.04 80.724Q154.145 80.9459 154.239 81.1726Q154.333 81.3994 154.415 81.6305Q154.498 81.8616 154.569 82.0965Q154.641 82.3314 154.7 82.5695Q154.76 82.8076 154.808 83.0484Q154.856 83.2891 154.892 83.5319Q154.928 83.7747 154.952 84.019Q154.976 84.2633 154.988 84.5085Q155 84.7536 155 84.9991L155 140.001Q155 140.247 154.988 140.492Q154.976 140.737 154.952 140.981Q154.928 141.225 154.892 141.468Q154.856 141.711 154.808 141.952Q154.76 142.193 154.7 142.431Q154.641 142.669 154.569 142.904Q154.498 143.139 154.415 143.37Q154.333 143.601 154.239 143.828Q154.145 144.054 154.04 144.276Q153.935 144.498 153.819 144.715Q153.704 144.931 153.577 145.142Q153.451 145.352 153.315 145.556Q153.178 145.76 153.032 145.957Q152.886 146.155 152.73 146.344Q152.575 146.534 152.41 146.716Q152.245 146.898 152.071 147.071Q151.898 147.245 151.716 147.41Q151.534 147.575 151.344 147.73Q151.155 147.886 150.957 148.032Q150.76 148.179 150.556 148.315Q150.352 148.451 150.142 148.577Q149.931 148.704 149.715 148.819Q149.498 148.935 149.276 149.04Q149.054 149.145 148.827 149.239Q148.601 149.333 148.37 149.416Q148.138 149.498 147.904 149.57Q147.669 149.641 147.431 149.7Q147.192 149.76 146.952 149.808Q146.711 149.856 146.468 149.892Q146.225 149.928 145.981 149.952Q145.737 149.976 145.492 149.988Q145.246 150 145.001 150L144.999 150Q144.754 150 144.508 149.988Q144.263 149.976 144.019 149.952Q143.775 149.928 143.532 149.892Q143.289 149.856 143.048 149.808Q142.808 149.76 142.569 149.7Q142.331 149.641 142.096 149.57Q141.862 149.498 141.63 149.416Q141.399 149.333 141.173 149.239Q140.946 149.145 140.724 149.04Q140.502 148.935 140.285 148.819Q140.069 148.704 139.858 148.577Q139.648 148.451 139.444 148.315Q139.24 148.179 139.043 148.032Q138.845 147.886 138.656 147.73Q138.466 147.575 138.284 147.41Q138.102 147.245 137.929 147.071Q137.755 146.898 137.59 146.716Q137.425 146.534 137.27 146.344Q137.114 146.155 136.968 145.957Q136.821 145.76 136.685 145.556Q136.549 145.352 136.423 145.142Q136.296 144.931 136.181 144.715Q136.065 144.498 135.96 144.276Q135.855 144.054 135.761 143.828Q135.667 143.601 135.584 143.37Q135.502 143.139 135.431 142.904Q135.359 142.669 135.3 142.431Q135.24 142.193 135.192 141.952Q135.144 141.711 135.108 141.468Q135.072 141.225 135.048 140.981Q135.024 140.737 135.012 140.492Q135 140.247 135 140.001L135 84.9991Q135 84.7536 135.012 84.5085Q135.024 84.2633 135.048 84.019Q135.072 83.7747 135.108 83.5319Q135.144 83.2891 135.192 83.0484Q135.24 82.8076 135.3 82.5695Q135.359 82.3314 135.431 82.0965Q135.502 81.8616 135.584 81.6305Q135.667 81.3994 135.761 81.1726Q135.855 80.9459 135.96 80.724Q136.065 80.5021 136.181 80.2856Q136.296 80.0691 136.423 79.8586Q136.549 79.648 136.685 79.4439Q136.821 79.2398 136.968 79.0427Q137.114 78.8455 137.27 78.6558Q137.425 78.466 137.59 78.2842Q137.755 78.1023 137.929 77.9287Q138.102 77.7552 138.284 77.5903Q138.466 77.4255 138.656 77.2698Q138.845 77.114 139.043 76.9678Q139.24 76.8216 139.444 76.6852Q139.648 76.5489 139.858 76.4227Q140.069 76.2965 140.285 76.1808Q140.502 76.065 140.724 75.9601Q140.946 75.8551 141.173 75.7612Q141.399 75.6673 141.63 75.5846Q141.862 75.5019 142.096 75.4306Q142.331 75.3594 142.569 75.2997Q142.808 75.2401 143.048 75.1922Q143.289 75.1443 143.532 75.1083Q143.775 75.0723 144.019 75.0482Q144.263 75.0242 144.508 75.0121Q144.754 75.0001 144.999 75.0001Z" id="Rectangle-3" fill="#1E90FF" fill-rule="evenodd" stroke="none" />
    <g id="Wed" fill="#ABABAB" transform="translate(133 164.00009)">
      <path d="M2.42188 10.5L0.234375 2.5L1.21875 2.5L2.89063 9.01563L2.96875 9.01563L4.67188 2.5L5.76563 2.5L7.46875 9.01563L7.54688 9.01563L9.21875 2.5L10.2031 2.5L8.01563 10.5L7.01563 10.5L5.25 4.125L5.1875 4.125L3.42188 10.5L2.42188 10.5ZM18.6289 10.2441Q19.2031 10.625 19.9531 10.625Q20.5313 10.625 20.8789 10.4316Q21.2266 10.2383 21.4141 9.99023Q21.6016 9.74219 21.7031 9.57813L21.8125 9.57813L21.8125 10.5L22.7031 10.5L22.7031 2.5L21.7813 2.5L21.7813 5.45312L21.7031 5.45312Q21.6016 5.29688 21.4199 5.05273Q21.2383 4.80859 20.8965 4.61523Q20.5547 4.42188 19.9688 4.42188Q19.2109 4.42188 18.6328 4.80078Q18.0547 5.17969 17.7305 5.875Q17.4063 6.57031 17.4063 7.51563Q17.4063 8.46875 17.7305 9.16602Q18.0547 9.86328 18.6289 10.2441ZM13.7969 10.625Q12.9297 10.625 12.3027 10.2402Q11.6758 9.85547 11.3379 9.16211Q11 8.46875 11 7.54688Q11 6.625 11.3379 5.91992Q11.6758 5.21484 12.2832 4.81836Q12.8906 4.42188 13.7031 4.42188Q14.1719 4.42188 14.6289 4.57812Q15.0859 4.73438 15.4609 5.08398Q15.8359 5.43359 16.0586 6.00781Q16.2813 6.58203 16.2813 7.42188L16.2813 7.8125L11.9258 7.8125Q11.957 8.77344 12.4707 9.28516Q12.9844 9.79688 13.7969 9.79688Q14.3398 9.79688 14.7305 9.5625Q15.1211 9.32813 15.2969 8.85938L16.1875 9.10938Q15.9766 9.78906 15.3438 10.207Q14.7109 10.625 13.7969 10.625ZM11.9258 7.01563L15.3438 7.01563Q15.3438 6.25391 14.8984 5.75195Q14.4531 5.25 13.7031 5.25Q13.1758 5.25 12.7891 5.49609Q12.4023 5.74219 12.1797 6.14648Q11.957 6.55078 11.9258 7.01563ZM21.3535 9.1582Q20.9102 9.79688 20.0781 9.79688Q19.5 9.79688 19.1113 9.49023Q18.7227 9.18359 18.5254 8.66211Q18.3281 8.14063 18.3281 7.5Q18.3281 6.86719 18.5215 6.35742Q18.7148 5.84766 19.1035 5.54883Q19.4922 5.25 20.0781 5.25Q20.9219 5.25 21.3594 5.87109Q21.7969 6.49219 21.7969 7.5Q21.7969 8.51953 21.3535 9.1582Z" />
    </g>
    <g id="Thur" fill="#ABABAB" transform="translate(182 164.00009)">
      <path d="M0.53125 2.5L0.53125 3.35938L3.04688 3.35938L3.04688 10.5L4.01563 10.5L4.01563 3.35938L6.53125 3.35938L6.53125 2.5L0.53125 2.5ZM8.82813 10.5L8.82813 6.89063Q8.82813 6.10547 9.27539 5.67773Q9.72266 5.25 10.4063 5.25Q11.0586 5.25 11.4277 5.64258Q11.7969 6.03516 11.7969 6.75L11.7969 10.5L12.7188 10.5L12.7188 6.6875Q12.7188 5.53125 12.1563 4.97656Q11.5938 4.42188 10.6719 4.42188Q9.96484 4.42188 9.54102 4.69727Q9.11719 4.97266 8.90625 5.4375L8.82813 5.4375L8.82813 2.5L7.90625 2.5L7.90625 10.5L8.82813 10.5ZM20.7969 4.5L20.7969 10.5L21.7188 10.5L21.7188 6.70313Q21.7188 6.09375 22.1484 5.69531Q22.5781 5.29688 23.2344 5.29688Q23.418 5.29688 23.584 5.32227Q23.75 5.34766 23.7969 5.35938L23.7969 4.42188Q23.7188 4.41406 23.5664 4.41016Q23.4141 4.40625 23.3125 4.40625Q22.7734 4.40625 22.3438 4.68359Q21.9141 4.96094 21.75 5.40625L21.6875 5.40625L21.6875 4.5L20.7969 4.5ZM18.1875 8.04688L18.1875 4.5L19.1094 4.5L19.1094 10.5L18.1875 10.5L18.1875 9.48438L18.125 9.48438Q17.9141 9.94141 17.4688 10.2598Q17.0234 10.5781 16.3438 10.5781Q15.5 10.5781 14.9531 10.0195Q14.4063 9.46094 14.4063 8.3125L14.4063 4.5L15.3281 4.5L15.3281 8.25Q15.3281 8.90625 15.6973 9.29688Q16.0664 9.6875 16.6406 9.6875Q16.9844 9.6875 17.3418 9.51172Q17.6992 9.33594 17.9434 8.97266Q18.1875 8.60938 18.1875 8.04688Z" />
    </g>
    <g id="3" fill="#ABABAB" transform="translate(0 62.00009)">
      <path d="M3.53125 10.6094Q2.75781 10.6094 2.1543 10.3438Q1.55078 10.0781 1.19727 9.60352Q0.84375 9.12891 0.8125 8.5L1.79688 8.5Q1.83984 9.07813 2.33008 9.41406Q2.82031 9.75 3.51563 9.75Q4.28516 9.75 4.7832 9.35742Q5.28125 8.96484 5.28125 8.32813Q5.28125 7.66406 4.79102 7.24609Q4.30078 6.82813 3.39063 6.82813L2.75 6.82813L2.75 5.96875L3.39063 5.96875Q4.10156 5.96875 4.55078 5.58984Q5 5.21094 5 4.57812Q5 3.97266 4.60547 3.60352Q4.21094 3.23438 3.54688 3.23438Q3.13281 3.23438 2.76758 3.38477Q2.40234 3.53516 2.17188 3.81836Q1.94141 4.10156 1.92188 4.5L0.984375 4.5Q1.00781 3.87109 1.36328 3.39648Q1.71875 2.92187 2.29492 2.65625Q2.87109 2.39063 3.5625 2.39063Q4.30469 2.39063 4.83594 2.68945Q5.36719 2.98828 5.65234 3.47656Q5.9375 3.96484 5.9375 4.53125Q5.9375 5.20703 5.58398 5.68359Q5.23047 6.16016 4.625 6.34375L4.625 6.40625Q5.38281 6.53125 5.80859 7.04883Q6.23437 7.56641 6.23438 8.32813Q6.23438 8.98047 5.88086 9.49805Q5.52734 10.0156 4.91797 10.3125Q4.30859 10.6094 3.53125 10.6094Z" />
    </g>
    <g id="4" fill="#ABABAB" transform="translate(0 33.200104)">
      <path d="M0.640625 8.85938L0.640625 8.0625L4.15625 2.5L5.32813 2.5L5.32813 8L6.42188 8L6.42188 8.85938L5.32813 8.85938L5.32813 10.5L4.40625 10.5L4.40625 8.85938L0.640625 8.85938ZM4.40625 8L4.40625 3.73438L4.34375 3.73438L1.6875 7.9375L1.6875 8L4.40625 8Z" />
    </g>
    <g id="5" fill="#ABABAB" transform="translate(1 6.0000916)">
      <path d="M3.32813 10.6094Q2.64063 10.6094 2.08984 10.3359Q1.53906 10.0625 1.20703 9.58594Q0.875 9.10938 0.84375 8.5L1.78125 8.5Q1.83594 9.04297 2.27539 9.39648Q2.71484 9.75 3.32813 9.75Q3.82031 9.75 4.20508 9.51953Q4.58984 9.28906 4.81055 8.88477Q5.03125 8.48047 5.03125 7.96875Q5.03125 7.44531 4.80273 7.0332Q4.57422 6.62109 4.17578 6.38281Q3.77734 6.14453 3.26563 6.14062Q2.89844 6.13672 2.51172 6.25195Q2.125 6.36719 1.875 6.54688L0.96875 6.4375L1.45313 2.5L5.60938 2.5L5.60938 3.35938L2.26563 3.35938L1.98438 5.71875L2.03125 5.71875Q2.27734 5.52344 2.64844 5.39453Q3.01953 5.26563 3.42188 5.26563Q4.15625 5.26563 4.73242 5.61523Q5.30859 5.96484 5.63867 6.57031Q5.96875 7.17578 5.96875 7.95313Q5.96875 8.71875 5.62695 9.31836Q5.28516 9.91797 4.6875 10.2637Q4.08984 10.6094 3.32813 10.6094Z" />
    </g>
  </g>
</svg>